<?xml version="1.0" encoding="utf-8"?>
<svg xmlns="http://www.w3.org/2000/svg" width="470" height="381" viewBox="0 0 470 381" fill="none">
<g clip-path="url(#clip0_43_54)">
<rect x="1" y="-1" width="101" height="28" rx="14" transform="matrix(1 0 0 -1 324 321)" fill="#E4FB56" stroke="black" stroke-width="2"/>
<path d="M41.8611 171.265L80.4515 209.062L108.76 163.057L109.32 217.071L161.868 204.559L124.071 243.15L170.076 271.458L116.062 272.018L128.574 324.566L89.9833 286.769L61.6747 332.774L61.115 278.76L8.56687 291.272L46.3642 252.681L0.359227 224.373L54.3733 223.813L41.8611 171.265Z" fill="#484848"/>
<path d="M317.5 201C354.746 201 385 231.44 385 268.94V375H250V268.94C250 231.44 280.254 201 317.5 201Z" fill="white" stroke="black" stroke-width="2"/>
<path d="M336.5 250C363.261 250 385 271.84 385 298.747V375H288V298.747C288 271.84 309.739 250 336.5 250Z" fill="#5666FB" stroke="black" stroke-width="2"/>
<g filter="url(#filter0_d_43_54)">
<path d="M169.696 104.258C109.023 91.6634 31.5274 93.3377 12.7034 154.636C-3.2234 206.497 52.1413 275.397 154.528 280.583C154.528 280.583 172.73 321.33 230.37 327.998C230.37 327.998 181.831 310.217 182.59 278.36C182.59 278.36 277.392 281.324 288.154 216.461C298.476 154.273 212.009 113.037 169.696 104.258Z" fill="white"/>
<path d="M155.441 280.175L155.441 280.175L155.441 280.174L155.191 279.615L154.579 279.584C103.597 277.002 64.4024 258.562 39.951 234.401C15.4838 210.225 5.83587 180.405 13.6594 154.93L12.7034 154.636L13.6594 154.93C22.9332 124.731 46.6397 109.17 75.723 102.713C104.839 96.2501 139.224 98.9539 169.493 105.237L169.696 104.258L169.493 105.237C190.522 109.6 222.578 122.049 248.064 141.132C273.574 160.233 292.236 185.761 287.168 216.298C281.882 248.156 255.969 263.446 231.054 270.775C218.616 274.433 206.502 276.081 197.49 276.813C192.986 277.179 189.262 277.316 186.667 277.361C185.369 277.384 184.354 277.383 183.665 277.378C183.321 277.375 183.058 277.37 182.882 277.367C182.842 277.366 182.806 277.365 182.775 277.365C182.738 277.364 182.708 277.363 182.684 277.362L182.635 277.361L182.624 277.361L182.621 277.361C182.621 277.361 182.621 277.361 182.59 278.36L182.621 277.361L181.614 277.329L181.59 278.336C181.198 294.802 193.531 307.482 205.622 315.945C211.7 320.199 217.795 323.444 222.367 325.624C222.568 325.72 222.766 325.814 222.961 325.906C198.562 321.578 182.083 310.965 171.518 301.06C165.705 295.611 161.677 290.371 159.106 286.5C157.82 284.565 156.899 282.974 156.302 281.87C156.003 281.319 155.786 280.89 155.644 280.601C155.573 280.457 155.521 280.348 155.488 280.276L155.475 280.248C155.464 280.226 155.456 280.209 155.451 280.196L155.443 280.178L155.441 280.175Z" stroke="black" stroke-width="2"/>
</g>
<path d="M299.054 87.8028C289.944 76.8184 273.079 65.4463 244.972 71.9077C227.914 75.8492 218.028 88.1259 214.345 93.6181C213.376 95.1042 211.373 95.4919 209.887 94.5227C201.035 88.9659 184.17 81.1476 160.651 81.1476C137.131 81.1476 120.267 88.9659 111.415 94.5227C109.929 95.4919 107.925 95.0396 106.956 93.6181C103.273 88.0613 93.3227 75.8492 76.3292 71.9077C48.222 65.3817 31.293 76.8184 22.2471 87.8028C21.6009 88.6428 22.3117 89.8705 23.3455 89.612C26.77 88.7074 31.8746 89.7412 36.8499 99.3688C46.3482 117.719 56.9449 130.448 86.1505 126.701C88.3474 126.442 90.2213 128.381 89.769 130.577C88.089 138.783 85.5044 157.78 88.9935 184.466C90.3504 194.675 91.9012 204.884 93.3873 215.093C93.775 217.807 94.4211 220.585 94.5504 223.363C94.615 224.139 94.4857 224.785 94.2273 225.496C93.5811 227.305 91.7074 229.437 92.8704 231.376C93.775 232.862 95.9072 233.314 97.458 233.443C103.984 234.025 110.639 233.702 117.101 232.474C118.07 232.28 119.427 232.216 120.331 231.763C121.301 231.246 121.559 230.019 121.882 229.049C122.851 226.594 123.756 224.074 124.725 221.619C124.854 221.231 125.048 220.843 125.178 220.391C126.987 215.674 131.51 212.573 136.55 212.573H160.586H184.623C189.662 212.573 194.185 215.674 195.995 220.391C196.124 220.779 196.318 221.167 196.447 221.619C197.416 224.074 198.321 226.594 199.29 229.049C199.678 230.019 199.936 231.246 200.841 231.763C201.745 232.28 203.102 232.28 204.071 232.474C210.533 233.702 217.188 234.025 223.714 233.443C225.265 233.314 227.462 232.862 228.302 231.376C229.465 229.437 227.591 227.305 226.945 225.496C226.686 224.785 226.622 224.074 226.622 223.363C226.751 220.585 227.397 217.807 227.785 215.093C229.271 204.884 230.822 194.675 232.179 184.466C235.668 157.78 233.083 138.783 231.403 130.577C230.951 128.381 232.825 126.442 235.022 126.701C264.227 130.448 274.824 117.719 284.322 99.3688C289.298 89.7412 294.402 88.7074 297.827 89.612C298.99 89.8705 299.765 88.6428 299.054 87.8028Z" fill="black"/>
<path d="M114.713 133.097C122.789 133.937 134.291 135.553 144.564 138.396C150.315 140.011 151.866 147.377 147.278 151.189C142.432 155.325 135.195 158.749 125.374 156.552C117.814 154.872 111.288 150.349 107.54 144.146C104.374 139.042 108.639 132.451 114.713 133.097Z" fill="white"/>
<path d="M111 126L118.043 150.166C118.624 152.104 121.338 152.169 121.984 150.231L128.252 131.88" fill="black"/>
<path d="M206.531 133.097C198.454 133.937 186.953 135.553 176.679 138.396C170.928 140.011 169.377 147.377 173.965 151.189C178.811 155.325 186.048 158.749 195.869 156.552C203.429 154.872 209.955 150.349 213.703 144.146C216.869 139.042 212.54 132.451 206.531 133.097Z" fill="white"/>
<path d="M192.061 127L185.018 151.166C184.437 153.104 181.723 153.169 181.077 151.231L174.809 132.88" fill="black"/>
<path d="M206.531 133.098C198.454 133.938 186.952 135.553 176.679 138.396C170.928 140.011 169.377 147.377 173.965 151.19C178.811 155.325 186.048 158.749 195.869 156.552C203.429 154.873 209.955 150.35 213.703 144.147C216.869 139.042 212.54 132.451 206.531 133.098Z" fill="white"/>
<path d="M192.061 127L185.018 151.166C184.437 153.105 181.723 153.169 181.077 151.231L174.809 132.88" fill="black"/>
<path d="M155.803 173.094L172.409 171.091" stroke="white" stroke-width="2" stroke-miterlimit="10"/>
<circle cx="393" cy="120" r="40" stroke="black" stroke-width="2"/>
<circle cx="427" cy="161" r="40" fill="#FB5656" stroke="black" stroke-width="2"/>
<circle cx="449" cy="308" r="15" fill="#484848"/>
</g>
<defs>
<filter id="filter0_d_43_54" x="10" y="98" width="285.002" height="235.998" filterUnits="userSpaceOnUse" color-interpolation-filters="sRGB">
<feFlood flood-opacity="0" result="BackgroundImageFix"/>
<feColorMatrix in="SourceAlpha" type="matrix" values="0 0 0 0 0 0 0 0 0 0 0 0 0 0 0 0 0 0 127 0" result="hardAlpha"/>
<feOffset dx="6" dy="6"/>
<feComposite in2="hardAlpha" operator="out"/>
<feColorMatrix type="matrix" values="0 0 0 0 0.894118 0 0 0 0 0.984314 0 0 0 0 0.337255 0 0 0 1 0"/>
<feBlend mode="normal" in2="BackgroundImageFix" result="effect1_dropShadow_43_54"/>
<feBlend mode="normal" in="SourceGraphic" in2="effect1_dropShadow_43_54" result="shape"/>
</filter>
<clipPath id="clip0_43_54">
<rect width="470" height="380.052" fill="white"/>
</clipPath>
</defs>
</svg>