<svg id="圖層_1" data-name="圖層 1" xmlns="http://www.w3.org/2000/svg" xmlns:xlink="http://www.w3.org/1999/xlink" viewBox="0 0 470 336.50201"><defs><clipPath id="clip-path"><rect x="75.277" y="88.58002" width="160.92301" height="148.337" style="fill:none"/></clipPath></defs><path d="M420.2496,332.502H17.9216a12.75,12.75,0,0,1,0-25.5h402.328a12.75,12.75,0,0,1,0,25.5" style="fill:#ea5555;stroke:#060001;stroke-miterlimit:10;stroke-width:2px"/><path d="M420.2496,332.502H17.9216a12.75,12.75,0,0,1,0-25.5h402.328a12.75,12.75,0,0,1,0,25.5Z" style="fill:none;stroke:#231815;stroke-width:2px"/><path d="M321.27991,251.75491c20.957-17.361,34.06-42.066,34.06-69.484,0-52.543-48.097-95.137-107.427-95.137-59.329,0-107.426,42.594-107.426,95.137,0,52.542,48.097,95.135,107.426,95.135a118.16825,118.16825,0,0,0,49.876-10.861c18.02,20.09,51.735,10.805,51.735,10.805-15.678.249-24.239-15.138-28.244-25.595" style="fill:#d9e364;stroke:#060001;stroke-miterlimit:10;stroke-width:2px"/><path d="M321.27991,251.75491c20.957-17.361,34.06-42.066,34.06-69.484,0-52.543-48.097-95.137-107.427-95.137-59.329,0-107.426,42.594-107.426,95.137,0,52.542,48.097,95.135,107.426,95.135a118.16825,118.16825,0,0,0,49.876-10.861c18.02,20.09,51.735,10.805,51.735,10.805C333.84589,277.59892,325.28488,262.21191,321.27991,251.75491Z" style="fill:none;stroke:#231815;stroke-width:2px"/><path d="M467.9996,122.57132c0-52.542-48.096-95.136-107.426-95.136s-107.426,42.594-107.426,95.136,48.096,95.136,107.426,95.136a122.21364,122.21364,0,0,0,14.722-.893c-.263,10.165-3.192,21.808-14.066,27.063,0,0,35.091-7.016,41.596-33.816,38.323-14.534,65.174-48.233,65.174-87.49" style="fill:#4a60ab;stroke:#060001;stroke-miterlimit:10;stroke-width:2px"/><path d="M467.9996,122.57132c0-52.542-48.096-95.136-107.426-95.136s-107.426,42.594-107.426,95.136,48.096,95.136,107.426,95.136a122.21364,122.21364,0,0,0,14.722-.893c-.263,10.165-3.192,21.808-14.066,27.063,0,0,35.091-7.016,41.596-33.816C441.14859,195.52733,467.9996,161.82832,467.9996,122.57132Z" style="fill:none;stroke:#231815;stroke-miterlimit:10;stroke-width:2px"/><path d="M97.315,245.91512s3.81-13.788,17.31-13.788-8.596,23.453-8.596,23.453Z" style="fill:#231815"/><path d="M216.7496,249.25s-3.898-17.123-17.714-17.123c-13.815,0,8.797,29.125,8.797,29.125Z" style="fill:#231815"/><polygon points="44.429 59.686 80.933 95.44 107.711 51.922 108.242 103.016 157.949 91.18 122.196 127.685 165.712 154.462 114.618 154.992 126.454 204.699 89.95 168.946 63.171 212.464 62.642 161.37 12.935 173.205 48.69 136.701 5.171 109.923 56.265 109.393 44.429 59.686" style="fill:none;stroke:#060001;stroke-miterlimit:10;stroke-width:2px"/><path d="M138.1813,323.01271s.115,4.534.05,7.093c-.055,2.19-1.269,2.396-2.02,2.396h-3.717c-.535,0-1.419.021-1.58-.845a3.72881,3.72881,0,0,1,.942-2.542,68.75944,68.75944,0,0,1-2.203-11.444" style="fill:#fff"/><path d="M129.8658,319.584a73.18463,73.18463,0,0,0,1.989,9.53,4.8601,4.8601,0,0,0-.933,1.924,1.76825,1.76825,0,0,0-.007.619c.16.865,1.045.845,1.58.845h3.717c.751,0,1.965-.207,2.019-2.396.066-2.56-.05-7.092-.05-7.092l-8.527-5.343c.047.582.118,1.227.212,1.913" style="fill:#231815"/><path d="M181.6109,319.18561a73.173,73.173,0,0,1-1.989,9.529,4.86026,4.86026,0,0,1,.933,1.924,1.76857,1.76857,0,0,1,.007.619c-.16.866-1.045.846-1.58.846h-3.717c-.751,0-1.965-.207-2.019-2.397-.066-2.559.05-7.092.05-7.092l8.527-5.342c-.047.582-.118,1.226-.212,1.913" style="fill:#231815"/><path d="M156.8082,326.34771h-2.14a44.6893,44.6893,0,0,1-44.558-44.557v-29.271a44.6893,44.6893,0,0,1,44.558-44.557h2.14a44.68866,44.68866,0,0,1,44.558,44.557v29.271a44.68866,44.68866,0,0,1-44.558,44.557" style="fill:#231815"/><path d="M171.0611,91.23981c6.485-1.252,10.177,3.395,13.625-.106,3.449-3.501,3.75-16.918,11.034-20.085,7.284-3.166,17.327.548,17.583,3.903.255,3.356-5.3,3.174-6.374,8.921-1.073,5.746,7.32,32.457-8.448,42.458-15.768,10.002-36.524,4.969-38.488-2.227-1.965-7.196,4.583-31.611,11.068-32.864" style="fill:#231815"/><path d="M143.483,91.23981c-6.484-1.252-10.177,3.395-13.625-.106s-3.75-16.918-11.033-20.085c-7.284-3.166-17.327.548-17.583,3.903-.255,3.356,5.3,3.174,6.374,8.921,1.072,5.746-7.321,32.457,8.447,42.458,15.769,10.002,36.524,4.969,38.488-2.227,1.965-7.196-4.583-31.611-11.068-32.864" style="fill:#231815"/><path d="M216.79359,120.13481c11.649-11.679,36.257-6.169,41.866-1.87,5.61,4.298-7.479,16.066-19.038,19.702a33.10475,33.10475,0,0,1-21.59-.858Z" style="fill:#231815"/><path d="M217.2242,132.19781l-.209-9.01c9.399-6.167,31.581-4.247,33.46-1.66,2.014,2.771-7.535,8.167-15.983,10.84-5.677,1.796-13.277-.025-17.268-.17" style="fill:#b5b5b5"/><path d="M94.6832,120.13481c-11.65-11.679-36.257-6.169-41.866-1.87-5.611,4.298,7.479,16.066,19.038,19.702a33.10607,33.10607,0,0,0,21.59-.858Z" style="fill:#231815"/><path d="M94.2516,132.19781l.209-9.01c-9.398-6.167-31.581-4.247-33.46-1.66-2.013,2.771,7.536,8.167,15.984,10.84,5.677,1.796,13.276-.025,17.267-.17" style="fill:#b5b5b5"/><rect width="470" height="336.50201" style="fill:none"/><g style="clip-path:url(#clip-path)"><path d="M232.62759,177.08331c4.731,11.887,4.761,22.532.099,31.637-5.722,11.16-17.769,18.069-31.975,22.265-14.215,4.189-30.588,5.656-44.982,5.932h-.059c-28.787-.542-65.503-5.877-76.957-28.197-4.672-9.096-4.632-19.741.099-31.637-.772-14.797-.109-26.517,2.088-36.849,2.971-13.988,8.91-25.263,17.671-33.515,12.77-12.04,31.994-18.139,57.129-18.139,25.134,0,44.348,6.099,57.128,18.139,8.751,8.252,14.7,19.519,17.67,33.515,2.198,10.332,2.86,22.043,2.089,36.849m-2.376,30.614c4.395-8.554,4.306-18.654-.268-30.011a1.1479,1.1479,0,0,1-.088-.479c1.108-20.808.346-50.587-18.998-68.798-12.244-11.542-30.795-17.393-55.157-17.393s-42.923,5.851-55.169,17.393c-19.333,18.211-20.095,47.99-18.996,68.807a1.08552,1.08552,0,0,1-.08.47c-4.573,11.357-4.662,21.457-.267,30.011,10.86,21.163,46.507,26.249,74.512,26.783,28.004-.534,63.652-5.62,74.511-26.783" style="fill:#231815"/><path d="M229.984,177.68752c4.573,11.354,4.663,21.456.268,30.011-10.86,21.163-46.507,26.249-74.512,26.782-28.005-.533-63.652-5.619-74.512-26.782-4.394-8.555-4.306-18.657.268-30.011a1.09564,1.09564,0,0,0,.079-.472c-1.099-20.816-.337-50.595,18.997-68.806,12.245-11.542,30.807-17.393,55.168-17.393,24.362,0,42.913,5.851,55.158,17.393,19.343,18.211,20.107,47.99,18.997,68.798a1.17247,1.17247,0,0,0,.089.48" style="fill:#231815"/></g><path d="M115.3746,119.52841s4.602-7.133,12.281-5.039c6.718,1.832,7.741,6.522,7.741,6.522" style="fill:none;stroke:#fff;stroke-linecap:round;stroke-linejoin:round;stroke-width:2.178999900817871px"/><path d="M123.0699,126.41562c7.055-.969,12.275,2.921,15.442,8.846,7.133,13.346,3.846,37.015-12.353,38.696-23.39,2.424-22.138-44.924-3.089-47.542" style="fill:#fff"/><path d="M123.0699,126.41562c7.055-.969,12.275,2.921,15.442,8.846,7.133,13.346,3.846,37.015-12.353,38.696C102.7689,176.38162,104.0209,129.03363,123.0699,126.41562Z" style="fill:none;stroke:#fff;stroke-miterlimit:10;stroke-width:0.9900000095367432px"/><path d="M120.0533,134.66951c13.319,2.188,11.434,34.083-.75,34.723-14.25.749-12.938-36.971.75-34.723" style="fill:#231815"/><path d="M176.0787,120.21051s4.602-7.133,12.281-5.039c6.718,1.832,7.741,6.522,7.741,6.522" style="fill:none;stroke:#fff;stroke-linecap:round;stroke-linejoin:round;stroke-width:2.178999900817871px"/><path d="M183.774,126.41562c7.055-.969,12.275,2.921,15.442,8.846,7.133,13.346,3.846,37.015-12.353,38.696-23.39,2.424-22.138-44.924-3.089-47.542" style="fill:#fff"/><path d="M183.774,126.41562c7.055-.969,12.275,2.921,15.442,8.846,7.133,13.346,3.846,37.015-12.353,38.696C163.473,176.38162,164.725,129.03363,183.774,126.41562Z" style="fill:none;stroke:#fff;stroke-miterlimit:10;stroke-width:0.9900000095367432px"/><path d="M180.7574,134.66951c13.319,2.188,11.435,34.083-.75,34.723-14.25.749-12.938-36.971.75-34.723" style="fill:#231815"/><path d="M148.0455,199.03131s2.122,5.964,7.432,5.655a10.61193,10.61193,0,0,0,7.953-4.569" style="fill:none;stroke:#fff;stroke-linecap:round;stroke-linejoin:round;stroke-width:1.6480000019073486px"/><path d="M103.2428,195.25882c.706,9.542-3.584,17.636-9.582,18.079-5.997.443-11.431-6.932-12.137-16.474-.706-9.541,3.584-17.635,9.582-18.079,5.997-.443,11.431,6.932,12.137,16.474" style="fill:#b5b5b5"/><path d="M208.234,195.25882c-.706,9.542,3.584,17.636,9.582,18.079,5.997.443,11.431-6.932,12.137-16.474.706-9.541-3.584-17.635-9.582-18.079-5.997-.443-11.431,6.932-12.137,16.474" style="fill:#b5b5b5"/><path d="M110.3844,223.087c-.169-.087-.339-.173-.502-.265a3.60284,3.60284,0,0,1,.502.265" style="fill:#f5a945"/><path d="M187.3795,308.26181c0,3.635,9.929,6.576,22.197,6.576" style="fill:none;stroke:#231815;stroke-miterlimit:10;stroke-width:2.4660000801086426px"/><path d="M216.1539,314.83791a4.11051,4.11051,0,1,1-4.111-4.11,4.1103,4.1103,0,0,1,4.111,4.11" style="fill:#231815"/><path d="M156.0162,284.26471v24.887c-9.355,0-17.402-10.105-21.518-24.887Z" style="fill:#b5b5b5"/><path d="M156.0162,262.18462h24.326a91.38846,91.38846,0,0,1-2.807,22.08h-21.519Z" style="fill:#b5b5b5"/><path d="M156.0162,242.16222v20.209h-24.325a86.66617,86.66617,0,0,1,2.432-20.209Z" style="fill:#b5b5b5"/><path d="M177.90981,242.16222h-21.894v-26.758c9.731,0,18.151,10.853,21.894,26.758" style="fill:#b5b5b5"/><path d="M156.0162,284.26471h21.519c-4.117,14.782-12.163,24.887-21.519,24.887Z" style="fill:#fff"/><path d="M156.0162,262.18462v22.08h-21.518a80.96487,80.96487,0,0,1-2.807-22.08Z" style="fill:#fff"/><path d="M180.34241,262.18462h-24.326v-20.022h21.893a83.88515,83.88515,0,0,1,2.433,20.022" style="fill:#fff"/><path d="M156.0162,215.40431v26.758h-21.893c3.744-15.905,12.164-26.758,21.893-26.758" style="fill:#fff"/><path d="M196.8082,284.26471l.562.187a46.73306,46.73306,0,0,1-41.166,24.512c9.355,0,17.402-10.104,21.518-24.886h19.086Z" style="fill:#b5b5b5"/><path d="M134.4986,284.26471c4.115,14.782,12.162,24.887,21.518,24.887a46.73157,46.73157,0,0,1-41.166-24.513l.561-.187Z" style="fill:#fff"/><path d="M202.79649,262.18462h-22.454a86.711,86.711,0,0,0-2.433-20.209h18.711l1.311-.749a46.66275,46.66275,0,0,1,4.865,20.958" style="fill:#b5b5b5"/><path d="M115.4117,242.16222h18.712a85.44159,85.44159,0,0,0-2.433,20.209h-22.454a45.23538,45.23538,0,0,1,4.679-20.209Z" style="fill:#fff"/><path d="M180.34241,262.18462h22.454a47.36586,47.36586,0,0,1-5.613,22.268l-.563-.188h-19.086a91.33637,91.33637,0,0,0,2.808-22.08" style="fill:#fff"/><path d="M134.4986,284.26471h-19.087l-.561.187a46.79738,46.79738,0,0,1-5.614-22.267h22.454a91.33629,91.33629,0,0,0,2.808,22.08" style="fill:#b5b5b5"/><path d="M197.9313,241.41512l-1.311.747h-18.71c-3.93-15.717-12.351-26.758-21.894-26.758a46.95516,46.95516,0,0,1,41.915,26.011" style="fill:#fff"/><path d="M156.0162,215.40431c-9.729,0-18.149,10.853-21.893,26.758h-18.711l-1.497-.187a46.65445,46.65445,0,0,1,42.101-26.571" style="fill:#b5b5b5"/><path d="M156.0162,310.83541a48.69092,48.69092,0,0,1-42.85-25.449,48.81734,48.81734,0,0,1,16.654-64.18,48.1178,48.1178,0,0,1,26.196-7.672,49.41825,49.41825,0,0,1,26.01,7.484,50.24284,50.24284,0,0,1,17.589,19.461,48.05022,48.05022,0,0,1,5.052,21.705,50.14818,50.14818,0,0,1-5.8,23.202,48.69137,48.69137,0,0,1-42.851,25.449m0-93.559a44.71976,44.71976,0,0,0-40.417,25.448,44.52819,44.52819,0,0,0,.936,40.792,44.90754,44.90754,0,0,0,84.389-21.332,44.82317,44.82317,0,0,0-44.908-44.908" style="fill:#231815"/><path d="M156.0162,310.83541c-9.917,0-18.712-10.104-23.202-26.197a86.75325,86.75325,0,0,1-2.994-22.454,82.73838,82.73838,0,0,1,2.432-20.583c2.058-8.047,5.24-14.97,9.169-20.021,4.304-5.241,9.357-8.046,14.595-8.046,5.239,0,10.292,2.805,14.596,8.046,3.929,4.865,7.11,11.788,9.168,20.021a81.64521,81.64521,0,0,1,2.433,20.583,79.39275,79.39275,0,0,1-2.994,22.454c-4.491,16.093-13.285,26.197-23.203,26.197m0-93.559c-8.42,0-16.279,9.917-20.208,25.261a83.10322,83.10322,0,0,0-2.246,19.647,79.75655,79.75655,0,0,0,2.807,21.519c2.058,7.11,4.865,13.098,8.42,17.215,3.369,4.117,7.298,6.174,11.227,6.174,3.93,0,7.859-2.057,11.228-6.174,3.554-4.117,6.548-10.105,8.42-17.215a79.75685,79.75685,0,0,0,2.806-21.519,83.1559,83.1559,0,0,0-2.245-19.647c-3.929-15.344-11.789-25.261-20.209-25.261" style="fill:#231815"/><path d="M156.0162,310.835a1.76647,1.76647,0,0,1-1.87-1.871v-93.56a1.8705,1.8705,0,0,1,3.741,0v93.56a1.76724,1.76724,0,0,1-1.871,1.871" style="fill:#231815"/><path d="M202.79649,264.05572h-93.56a1.871,1.871,0,1,1,0-3.742h93.56a1.871,1.871,0,0,1,0,3.742" style="fill:#231815"/><path d="M196.8082,244.03422h-81.396a1.871,1.871,0,1,1,0-3.742h81.396a1.767,1.767,0,0,1,1.871,1.87,1.87519,1.87519,0,0,1-1.871,1.872" style="fill:#231815"/><path d="M196.8082,286.13581h-81.396a1.8715,1.8715,0,1,1,0-3.743h81.396a1.768,1.768,0,0,1,1.871,1.872,1.875,1.875,0,0,1-1.871,1.871" style="fill:#231815"/><path d="M207.8092,270.67781l2.283-13.073,5.584-11.747s10.221,30.015-7.867,24.82" style="fill:#231815"/><path d="M212.04649,268.96391c-2.799,3.435-5.72,1.164-5.72,1.164a4.24527,4.24527,0,0,1-1.442-.133l-.002-.001a4.10857,4.10857,0,0,1-2.147-1.331c-2.32-.068-5.51.227-7.419-1.751-1.703-1.762-.291-4.385-.291-4.385-2.299-.918-3.257-2.55-2.785-4.159,1.227-3.519,6.809-4.867,9.514-4.603a15.2465,15.2465,0,0,1,4.055,1.103,16.75208,16.75208,0,0,1,7.191,6.037s1.842,4.626-.954,8.059" style="fill:#231815"/><path d="M204.8844,269.99522l-.002-.001a4.10621,4.10621,0,0,1-2.146-1.331c-2.321-.068-5.511.227-7.42-1.751-1.703-1.763-.29-4.385-.29-4.385-2.3-.919-3.258-2.551-2.786-4.159,1.227-3.519,6.809-4.867,9.514-4.603a15.20957,15.20957,0,0,1,4.055,1.103c5.165,4.923,4.272,15.412-.925,15.127" style="fill:#fbfbfb"/><path d="M212.5611,261.18172a18.75963,18.75963,0,0,0-8.783-5.615,9.36823,9.36823,0,0,0-3.303-.351c-2.46.267-5.76,1.301-6.828,3.694-.574,1.425.83,2.604,2.058,3.131l.377,1.037c-.619,1.651-.461,3.087,1.231,3.924,1.718.875,3.923.697,5.844.924a5.20134,5.20134,0,0,0,.67.816,5.25446,5.25446,0,0,0,2.374,1.23,3.41606,3.41606,0,0,1-2.048.133,3.89173,3.89173,0,0,1-1.899-1.084l.504.242c-.482.027-.977.048-1.482.063a9.875,9.875,0,0,1-4.761-.749c-2.545-1.23-3.091-3.834-1.735-6.2l.377,1.037c-2.121-.694-4.027-2.743-3.122-5.123,1.314-3.191,5.161-4.486,8.308-4.752a8.68167,8.68167,0,0,1,2.938.287,13.78683,13.78683,0,0,1,9.28,7.356" style="fill:#231815"/><path d="M201.3483,259.42971a16.11349,16.11349,0,0,0-5.409,3.835l-1.016-1.074a16.85426,16.85426,0,0,1,6.425-2.761" style="fill:#231815"/><path d="M110.9303,268.543l-4.901-12.963-8.714-9.665s-7.616,38.445,13.615,22.628" style="fill:#231815"/><path d="M104.2184,270.30382c3.697,2.44,5.807-.6,5.807-.6a4.22243,4.22243,0,0,0,1.337-.557l.002-.001a4.109,4.109,0,0,0,1.65-1.912c2.194-.758,5.326-1.43,6.558-3.888,1.097-2.19-1.034-4.271-1.034-4.271,1.92-1.564,2.347-3.408,1.415-4.801-2.222-2.992-7.952-2.612-10.454-1.55a15.20979,15.20979,0,0,0-3.54,2.264,16.73941,16.73941,0,0,0-5.058,7.91s-.376,4.965,3.317,7.406" style="fill:#231815"/><path d="M111.3619,269.14651l.002-.001a4.1034,4.1034,0,0,0,1.65-1.912c2.195-.758,5.327-1.43,6.558-3.888,1.098-2.19-1.033-4.27-1.033-4.27,1.92-1.565,2.346-3.408,1.415-4.802-2.223-2.992-7.952-2.611-10.454-1.55a15.18931,15.18931,0,0,0-3.54,2.264c-3.459,6.242.527,15.985,5.402,14.159" style="fill:#fbfbfb"/><path d="M101.402,263.03031a18.76347,18.76347,0,0,1,6.705-7.983,9.36932,9.36932,0,0,1,3.047-1.322c2.427-.48,5.886-.479,7.62,1.484.974,1.189-.015,2.734-1.028,3.604l-.05,1.103c1.082,1.389,1.361,2.807-.003,4.112-1.378,1.349-3.536,1.836-5.301,2.627a5.17027,5.17027,0,0,1-.395.979,5.258,5.258,0,0,1-1.898,1.884,3.39684,3.39684,0,0,0,1.993-.486,3.87332,3.87332,0,0,0,1.489-1.601l-.408.381c.467-.118.946-.246,1.432-.384a9.86429,9.86429,0,0,0,4.32-2.136c2.061-1.934,1.804-4.583-.197-6.434l-.05,1.102c1.818-1.296,3.023-3.822,1.449-5.823-2.207-2.652-6.265-2.738-9.349-2.051a8.66415,8.66415,0,0,0-2.717,1.15,13.796,13.796,0,0,0-6.659,9.794" style="fill:#231815"/><path d="M111.5797,258.00791a16.14415,16.14415,0,0,1,6.309,2.043l.647-1.328a16.859,16.859,0,0,0-6.956-.715" style="fill:#231815"/><path d="M467.9996,319.752a12.75,12.75,0,1,1-12.75-12.75,12.74953,12.74953,0,0,1,12.75,12.75" style="fill:#ea5555;stroke:#060001;stroke-miterlimit:10;stroke-width:2px"/><circle cx="455.2496" cy="319.75201" r="12.75" style="fill:none;stroke:#231815;stroke-width:2px"/><rect width="470" height="336.50201" style="fill:none"/><rect width="470" height="336.50201" style="fill:none"/></svg>