<svg id="圖層_1" data-name="圖層 1" xmlns="http://www.w3.org/2000/svg" xmlns:xlink="http://www.w3.org/1999/xlink" viewBox="0 0 470 336.50201"><defs><clipPath id="clip-path"><rect x="75.277" y="88.58002" width="160.92301" height="148.337" style="fill:none"/></clipPath></defs><polygon points="44.429 59.686 80.933 95.44 107.711 51.922 108.242 103.016 157.949 91.18 122.196 127.685 165.712 154.462 114.618 154.992 126.454 204.699 89.95 168.946 63.171 212.464 62.642 161.37 12.935 173.205 48.689 136.701 5.171 109.923 56.265 109.393 44.429 59.686" style="fill:#fff"/><polygon points="44.429 59.686 80.933 95.44 107.711 51.922 108.242 103.016 157.949 91.18 122.196 127.685 165.712 154.462 114.618 154.992 126.454 204.699 89.95 168.946 63.171 212.464 62.642 161.37 12.935 173.205 48.689 136.701 5.171 109.923 56.265 109.393 44.429 59.686" style="fill:none;stroke:#040000;stroke-miterlimit:10;stroke-width:2px"/><path d="M434.99979,142.93561a115.5,115.5,0,1,1-115.5-115.5,115.49986,115.49986,0,0,1,115.5,115.5" style="fill:#ea5555"/><circle cx="319.49979" cy="142.93561" r="115.5" style="fill:none;stroke:#040000;stroke-width:2px"/><path d="M82.9998,332.502h-76a6.00091,6.00091,0,0,1-6-6v-35a6.00091,6.00091,0,0,1,6-6h76a6.00091,6.00091,0,0,1,6,6v35a6.00091,6.00091,0,0,1-6,6" style="fill:#4a60ab;stroke:#040000;stroke-miterlimit:10;stroke-width:2px"/><rect x="0.9998" y="285.50201" width="88" height="47" rx="6" style="fill:none;stroke:#221714;stroke-miterlimit:10;stroke-width:2px"/><path d="M209.33369,332.502h-76a6.00026,6.00026,0,0,1-6-6v-35a6.00026,6.00026,0,0,1,6-6h76a6.00091,6.00091,0,0,1,6,6v35a6.00091,6.00091,0,0,1-6,6" style="fill:#d9e364;stroke:#040000;stroke-miterlimit:10;stroke-width:2px"/><rect x="127.33369" y="285.50201" width="88" height="47" rx="6" style="fill:none;stroke:#231815;stroke-width:2px"/><path d="M335.66669,332.502h-76a6.00089,6.00089,0,0,1-6-6v-35a6.00089,6.00089,0,0,1,6-6h76a6.00091,6.00091,0,0,1,6,6v35a6.00091,6.00091,0,0,1-6,6" style="fill:#4a60ab;stroke:#040000;stroke-miterlimit:10;stroke-width:2px"/><rect x="253.66669" y="285.50201" width="88" height="47" rx="6" style="fill:none;stroke:#221714;stroke-miterlimit:10;stroke-width:2px"/><path d="M461.99979,332.502h-76a6.00089,6.00089,0,0,1-6-6v-35a6.00089,6.00089,0,0,1,6-6h76a6.00092,6.00092,0,0,1,6,6v35a6.00092,6.00092,0,0,1-6,6" style="fill:#d9e364;stroke:#231815;stroke-miterlimit:10"/><rect x="379.99979" y="285.50201" width="88" height="47" rx="6" style="fill:none;stroke:#040000;stroke-width:2px"/><path d="M138.1814,323.01271s.115,4.534.05,7.093c-.055,2.19-1.269,2.396-2.02,2.396h-3.717c-.535,0-1.419.021-1.58-.845a3.72881,3.72881,0,0,1,.942-2.542,68.8694,68.8694,0,0,1-2.204-11.444" style="fill:#fff"/><path d="M129.866,319.584a73.18463,73.18463,0,0,0,1.989,9.53,4.84676,4.84676,0,0,0-.933,1.924,1.768,1.768,0,0,0-.007.619c.16.865,1.045.845,1.58.845h3.717c.751,0,1.965-.207,2.019-2.396.066-2.56-.05-7.092-.05-7.092l-8.528-5.343c.048.582.119,1.227.213,1.913" style="fill:#231815"/><path d="M181.6111,319.18561a73.1749,73.1749,0,0,1-1.99,9.529,4.84923,4.84923,0,0,1,.934,1.924,1.76834,1.76834,0,0,1,.007.619c-.16.866-1.045.846-1.58.846h-3.717c-.751,0-1.965-.207-2.02-2.397-.065-2.559.051-7.092.051-7.092l8.527-5.342c-.047.582-.119,1.226-.212,1.913" style="fill:#231815"/><path d="M156.8083,326.34771h-2.14a44.68929,44.68929,0,0,1-44.558-44.557v-29.271a44.68929,44.68929,0,0,1,44.558-44.557h2.14a44.6878,44.6878,0,0,1,44.557,44.557v29.271a44.6878,44.6878,0,0,1-44.557,44.557" style="fill:#231815"/><path d="M171.06129,91.23981c6.484-1.252,10.177,3.395,13.625-.106,3.449-3.501,3.75-16.918,11.034-20.085,7.283-3.166,17.326.548,17.583,3.903.255,3.356-5.301,3.174-6.374,8.921-1.073,5.746,7.32,32.457-8.448,42.458-15.769,10.002-36.524,4.969-38.488-2.227-1.965-7.196,4.583-31.611,11.068-32.864" style="fill:#231815"/><path d="M143.48309,91.23981c-6.484-1.252-10.177,3.395-13.625-.106s-3.75-16.918-11.033-20.085c-7.284-3.166-17.327.548-17.583,3.903-.256,3.356,5.3,3.174,6.374,8.921,1.072,5.746-7.321,32.457,8.447,42.458,15.769,10.002,36.524,4.969,38.488-2.227,1.965-7.196-4.583-31.611-11.068-32.864" style="fill:#231815"/><path d="M216.7937,120.13481c11.649-11.679,36.257-6.169,41.865-1.87,5.611,4.298-7.478,16.066-19.037,19.702a33.10839,33.10839,0,0,1-21.591-.858Z" style="fill:#231815"/><path d="M217.2243,132.19781l-.209-9.01c9.399-6.167,31.581-4.247,33.46-1.66,2.014,2.771-7.535,8.167-15.983,10.84-5.677,1.796-13.277-.025-17.268-.17" style="fill:#b5b5b5"/><path d="M94.6833,120.13481c-11.65-11.679-36.257-6.169-41.866-1.87-5.611,4.298,7.478,16.066,19.038,19.702a33.10607,33.10607,0,0,0,21.59-.858Z" style="fill:#231815"/><path d="M94.2517,132.19781l.209-9.01c-9.398-6.167-31.581-4.247-33.46-1.66-2.013,2.771,7.536,8.167,15.984,10.84,5.677,1.796,13.276-.025,17.267-.17" style="fill:#b5b5b5"/><rect width="470" height="336.50201" style="fill:none"/><g style="clip-path:url(#clip-path)"><path d="M232.62769,177.08331c4.731,11.887,4.761,22.532.099,31.637-5.722,11.16-17.769,18.069-31.975,22.265-14.215,4.189-30.588,5.656-44.982,5.932h-.059c-28.787-.542-65.503-5.877-76.957-28.197-4.672-9.096-4.632-19.741.099-31.637-.772-14.797-.109-26.517,2.088-36.849,2.971-13.988,8.91-25.263,17.67-33.515,12.771-12.04,31.995-18.139,57.13-18.139,25.134,0,44.348,6.099,57.128,18.139,8.751,8.252,14.699,19.519,17.67,33.515,2.197,10.332,2.86,22.043,2.089,36.849m-2.376,30.614c4.395-8.554,4.306-18.654-.268-30.011a1.1479,1.1479,0,0,1-.088-.479c1.108-20.808.346-50.587-18.998-68.798-12.245-11.542-30.795-17.393-55.157-17.393s-42.924,5.851-55.17,17.393c-19.333,18.211-20.094,47.99-18.995,68.807a1.08552,1.08552,0,0,1-.08.47c-4.573,11.357-4.662,21.457-.267,30.011,10.86,21.163,46.506,26.249,74.512,26.783,28.004-.534,63.652-5.62,74.511-26.783" style="fill:#231815"/><path d="M229.9841,177.68752c4.573,11.354,4.663,21.456.267,30.011-10.859,21.163-46.506,26.249-74.511,26.782-28.005-.533-63.651-5.619-74.512-26.782-4.395-8.555-4.306-18.657.268-30.011a1.09534,1.09534,0,0,0,.079-.472c-1.099-20.816-.337-50.595,18.997-68.806,12.245-11.542,30.807-17.393,55.168-17.393,24.362,0,42.913,5.851,55.158,17.393,19.343,18.211,20.107,47.99,18.997,68.798a1.15624,1.15624,0,0,0,.089.48" style="fill:#231815"/></g><path d="M115.3748,119.52841s4.602-7.133,12.281-5.039c6.718,1.832,7.741,6.522,7.741,6.522" style="fill:none;stroke:#fff;stroke-linecap:round;stroke-linejoin:round;stroke-width:2.178999900817871px"/><path d="M123.0701,126.41562c7.055-.969,12.274,2.921,15.441,8.846,7.134,13.346,3.847,37.015-12.352,38.696-23.39,2.424-22.138-44.924-3.089-47.542" style="fill:#fff"/><path d="M123.0701,126.41562c7.055-.969,12.274,2.921,15.441,8.846,7.134,13.346,3.847,37.015-12.352,38.696C102.7691,176.38162,104.0211,129.03363,123.0701,126.41562Z" style="fill:none;stroke:#fff;stroke-miterlimit:10;stroke-width:0.9900000095367432px"/><path d="M120.0535,134.66951c13.319,2.188,11.434,34.083-.75,34.723-14.25.749-12.938-36.971.75-34.723" style="fill:#231815"/><path d="M176.0788,120.21051s4.602-7.133,12.281-5.039c6.718,1.832,7.741,6.522,7.741,6.522" style="fill:none;stroke:#fff;stroke-linecap:round;stroke-linejoin:round;stroke-width:2.178999900817871px"/><path d="M183.7742,126.41562c7.055-.969,12.275,2.921,15.442,8.846,7.133,13.346,3.846,37.015-12.353,38.696-23.39,2.424-22.138-44.924-3.089-47.542" style="fill:#fff"/><path d="M183.7742,126.41562c7.055-.969,12.275,2.921,15.442,8.846,7.133,13.346,3.846,37.015-12.353,38.696C163.47319,176.38162,164.72519,129.03363,183.7742,126.41562Z" style="fill:none;stroke:#fff;stroke-miterlimit:10;stroke-width:0.9900000095367432px"/><path d="M180.7576,134.66951c13.319,2.188,11.434,34.083-.75,34.723-14.25.749-12.938-36.971.75-34.723" style="fill:#231815"/><path d="M148.04559,199.03131s2.122,5.964,7.431,5.655a10.6125,10.6125,0,0,0,7.954-4.569" style="fill:none;stroke:#fff;stroke-linecap:round;stroke-linejoin:round;stroke-width:1.6480000019073486px"/><path d="M103.2429,195.25882c.706,9.542-3.584,17.636-9.582,18.079-5.997.443-11.432-6.932-12.137-16.474-.706-9.541,3.584-17.635,9.581-18.079,5.997-.443,11.432,6.932,12.138,16.474" style="fill:#b5b5b5"/><path d="M208.2341,195.25882c-.706,9.542,3.584,17.636,9.582,18.079,5.996.443,11.431-6.932,12.137-16.474.706-9.541-3.584-17.635-9.582-18.079-5.997-.443-11.431,6.932-12.137,16.474" style="fill:#b5b5b5"/><path d="M110.3845,223.087c-.169-.087-.339-.173-.502-.265a3.60284,3.60284,0,0,1,.502.265" style="fill:#f5a945"/><rect x="86.93902" y="218.64184" width="135.54274" height="17.26196" transform="translate(-6.38902 4.48319) rotate(-1.62662)" style="fill:#fbfbfb"/><polygon points="86.721 220.571 87.211 237.826 90.071 237.745 90.428 220.466 86.721 220.571" style="fill:#fff"/><path d="M89.0984,310.70182a.57516.57516,0,0,1-.408-.535l-2.056-72.325a.57551.57551,0,0,1,.561-.593l135.488-3.852a.57742.57742,0,0,1,.593.561l2.055,72.325a.57221.57221,0,0,1-.56.593l-135.487,3.851a.57274.57274,0,0,1-.186-.025m-1.293-72.315,2.022,71.17,134.333-3.818-2.022-71.169Z" style="fill:#231815"/><path d="M87.0432,238.37791a.56958.56958,0,0,1-.228-.132.57724.57724,0,0,1-.181-.404l-.49-17.255a.57546.57546,0,0,1,.561-.593l135.488-3.852a.57725.57725,0,0,1,.593.561l.491,17.255a.57724.57724,0,0,1-.562.594l-135.487,3.851a.571.571,0,0,1-.185-.025m.272-17.246.458,16.101,134.333-3.819-.458-16.1Z" style="fill:#231815"/><polygon points="106.223 220.017 87.382 237.821 106.713 237.272 125.554 219.468 106.223 220.017" style="fill:#231815"/><polygon points="144.885 218.918 126.045 236.722 145.374 236.173 164.216 218.369 144.885 218.918" style="fill:#231815"/><polygon points="183.547 217.819 164.707 235.623 184.037 235.074 202.878 217.269 183.547 217.819" style="fill:#231815"/><polygon points="222.209 216.72 203.369 234.525 222.699 233.975 222.209 216.72" style="fill:#231815"/><polygon points="224.966 305.842 89.848 309.557 87.212 237.825 223.103 234.569 223.363 244.565 224.966 305.842" style="fill:#231815"/><line x1="92.5554" y1="303.39851" x2="220.5694" y2="299.48952" style="fill:none;stroke:#fff;stroke-linecap:round;stroke-miterlimit:10;stroke-width:0.9769999980926514px"/><path d="M112.1599,302.84871a2.93151,2.93151,0,1,1-2.932-2.932,2.9326,2.9326,0,0,1,2.932,2.932" style="fill:#fff"/><path d="M111.3054,302.84871a2.0765,2.0765,0,1,1-2.077-2.077,2.07776,2.07776,0,0,1,2.077,2.077" style="fill:#231815"/><path d="M169.2585,267.254a15.63576,15.63576,0,1,1-16.105-15.151,15.63394,15.63394,0,0,1,16.105,15.151" style="fill:#fff"/><path d="M163.656,265.82331l-15.662-8.416a1.33975,1.33975,0,0,0-1.974,1.221l.543,17.772a1.34,1.34,0,0,0,2.044,1.099l15.12-9.357a1.33918,1.33918,0,0,0-.071-2.319" style="fill:#231815"/><path d="M187.37959,308.26181c0,3.635,9.928,6.576,22.197,6.576" style="fill:none;stroke:#231815;stroke-miterlimit:10;stroke-width:2.4660000801086426px"/><path d="M216.154,314.83791a4.11051,4.11051,0,1,1-4.111-4.11,4.1103,4.1103,0,0,1,4.111,4.11" style="fill:#231815"/><path d="M227.62469,261.002l-3.958-12.667-.417-13s22.834,22,4.375,25.667" style="fill:#231815"/><path d="M230.60719,257.53812c-.915,4.334-4.552,3.654-4.552,3.654a4.23515,4.23515,0,0,1-1.344.543h-.001a4.10917,4.10917,0,0,1-2.518-.2c-2.094,1.002-4.794,2.726-7.398,1.842-2.32-.787-2.266-3.765-2.266-3.765-2.466.237-4.065-.775-4.381-2.421-.521-3.691,3.823-7.446,6.349-8.45a15.24908,15.24908,0,0,1,4.109-.876,16.736,16.736,0,0,1,9.158,2.072s3.757,3.268,2.844,7.601" style="fill:#231815"/><path d="M224.7117,261.73541h-.002a4.12438,4.12438,0,0,1-2.518-.2c-2.093,1.002-4.793,2.725-7.397,1.842-2.32-.788-2.267-3.765-2.267-3.765-2.465.236-4.064-.775-4.38-2.421-.522-3.691,3.823-7.446,6.348-8.45a15.17188,15.17188,0,0,1,4.11-.876c6.847,2.01,10.858,11.743,6.106,13.87" style="fill:#fbfbfb"/><path d="M227.49969,250.38481a18.76982,18.76982,0,0,0-10.38-.969,9.38634,9.38634,0,0,0-3.097,1.201c-2.064,1.364-4.524,3.794-4.378,6.411.143,1.53,1.931,1.935,3.264,1.841l.81.749c.207,1.75,1.005,2.955,2.892,2.924,1.928-.009,3.806-1.178,5.618-1.855a5.1841,5.1841,0,0,0,.969.419,5.25566,5.25566,0,0,0,2.674.006,3.4139,3.4139,0,0,1-1.76,1.055,3.88041,3.88041,0,0,1-2.184-.094l.559-.015q-.624.3675-1.289.734a9.869,9.869,0,0,1-4.575,1.515c-2.825.073-4.504-1.992-4.382-4.715l.81.748c-2.203.356-4.835-.594-5.121-3.124-.294-3.437,2.532-6.352,5.209-8.029a8.68021,8.68021,0,0,1,2.741-1.091,13.79128,13.79128,0,0,1,11.62,2.289" style="fill:#231815"/><path d="M216.7292,253.96291a16.15735,16.15735,0,0,0-3.052,5.887l-1.394-.49a16.83472,16.83472,0,0,1,4.446-5.397" style="fill:#231815"/><path d="M91.6755,269.88481l.337-13.854-4.438-12.234s-21.521,32.754,4.101,26.088" style="fill:#231815"/><path d="M84.7957,268.99031c2.507,3.652,5.604,1.63,5.604,1.63a4.24649,4.24649,0,0,0,1.45-.014l.002-.001a4.11027,4.11027,0,0,0,2.249-1.15c2.317.123,5.472.68,7.538-1.135,1.841-1.616.649-4.346.649-4.346,2.368-.727,3.457-2.274,3.118-3.916-.933-3.608-6.385-5.411-9.103-5.37a15.21943,15.21943,0,0,0-4.132.767,16.72955,16.72955,0,0,0-7.663,5.425s-2.217,4.459.288,8.11" style="fill:#231815"/><path d="M91.8494,270.60651l.002-.001a4.11006,4.11006,0,0,0,2.249-1.15c2.317.123,5.473.679,7.538-1.135,1.841-1.616.649-4.346.649-4.346,2.369-.727,3.458-2.274,3.119-3.916-.934-3.608-6.386-5.411-9.104-5.37a15.1818,15.1818,0,0,0-4.132.767c-5.552,4.481-5.525,15.008-.321,15.151" style="fill:#fbfbfb"/><path d="M84.9226,261.19241a18.75042,18.75042,0,0,1,9.216-4.874,9.305,9.305,0,0,1,3.319-.078c2.43.468,5.634,1.769,6.502,4.241.455,1.469-1.041,2.528-2.308,2.953l-.461,1.002c.48,1.695.206,3.114-1.55,3.81-1.784.73-3.967.371-5.9.439a5.16722,5.16722,0,0,1-.735.759,5.25773,5.25773,0,0,1-2.467,1.031,3.40136,3.40136,0,0,0,2.03.3,3.90055,3.90055,0,0,0,1.982-.924l-.523.2q.7185.10052,1.472.184a9.87544,9.87544,0,0,0,4.807-.355c2.637-1.016,3.395-3.568,2.238-6.036l-.46,1.002c2.171-.516,4.237-2.402,3.532-4.848-1.047-3.288-4.774-4.895-7.889-5.419a8.68,8.68,0,0,0-2.951.044,13.78679,13.78679,0,0,0-9.854,6.569" style="fill:#231815"/><path d="M96.2419,260.36822a16.10961,16.10961,0,0,1,5.075,4.266l1.101-.987a16.82319,16.82319,0,0,0-6.176-3.279" style="fill:#231815"/><path d="M393.9978,139.47032l-118.996-68.702a4.00143,4.00143,0,0,0-6.002,3.465v137.404a4.00155,4.00155,0,0,0,6.002,3.466l118.996-68.702a4.00144,4.00144,0,0,0,0-6.931" style="fill:#fff"/><path d="M393.9978,139.47032l-118.996-68.702a4.00143,4.00143,0,0,0-6.002,3.465v137.404a4.00155,4.00155,0,0,0,6.002,3.466l118.996-68.702A4.00144,4.00144,0,0,0,393.9978,139.47032Z" style="fill:none;stroke:#040000;stroke-width:2px"/><rect width="470" height="336.50201" style="fill:none"/><rect width="470" height="336.50201" style="fill:none"/></svg>