<svg id="圖層_1" data-name="圖層 1" xmlns="http://www.w3.org/2000/svg" xmlns:xlink="http://www.w3.org/1999/xlink" viewBox="0 0 470 336.48901"><defs><clipPath id="clip-path"><rect x="74.276" y="88.56702" width="160.924" height="148.337" style="fill:none"/></clipPath></defs><path d="M449.6665,73.53052a48.71031,48.71031,0,1,1-48.708-48.292,48.50175,48.50175,0,0,1,48.708,48.292" style="fill:#040000"/><path d="M435.93121,332.489h-230.362a9.06922,9.06922,0,0,1-9.069-9.069V161.98a9.06858,9.06858,0,0,1,9.069-9.069h230.362a9.06859,9.06859,0,0,1,9.069,9.069V323.42a9.06923,9.06923,0,0,1-9.069,9.069" style="fill:#4a60ab"/><polygon points="200.895 331.168 443.536 157.524 439.891 154.866 197.248 328.509 200.895 331.168" style="fill:#231815"/><polygon points="440.03 330.658 197.951 157.513 201.596 154.853 443.675 327.998 440.03 330.658" style="fill:#231815"/><rect x="196.50002" y="152.91101" width="248.49998" height="179.578" rx="9.291" style="fill:none;stroke:#231815;stroke-miterlimit:10;stroke-width:2px"/><path d="M143.5098,332.489H23.51279a4.1568,4.1568,0,0,1-4.157-4.157V263.576a4.1568,4.1568,0,0,1,4.157-4.157h119.997a4.1568,4.1568,0,0,1,4.157,4.157v64.756a4.1568,4.1568,0,0,1-4.157,4.157" style="fill:#d9e364"/><polygon points="21.625 331.952 146.911 261.296 145.028 260.215 19.743 330.87 21.625 331.952" style="fill:#231815"/><polygon points="145.1 331.744 20.105 261.292 21.987 260.21 146.982 330.662 145.1 331.744" style="fill:#231815"/><path d="M23.6142,259.419h119.793a4.259,4.259,0,0,1,4.259,4.259v64.553a4.258,4.258,0,0,1-4.258,4.258H23.6132a4.258,4.258,0,0,1-4.258-4.258V263.678A4.259,4.259,0,0,1,23.6142,259.419Z" style="fill:none;stroke:#231815;stroke-miterlimit:10;stroke-width:2px"/><polygon points="43.43 59.673 79.934 95.427 106.712 51.909 107.242 103.003 156.949 91.167 121.196 127.672 164.713 154.449 113.619 154.979 125.455 204.686 88.951 168.933 62.172 212.451 61.643 161.357 11.936 173.192 47.69 136.688 4.172 109.91 55.266 109.38 43.43 59.673" style="fill:none;stroke:#231815;stroke-width:2px"/><path d="M155.80859,326.33471h-2.14a44.68865,44.68865,0,0,1-44.558-44.557v-29.271a44.68865,44.68865,0,0,1,44.558-44.557h2.14a44.6878,44.6878,0,0,1,44.557,44.557v29.271a44.6878,44.6878,0,0,1-44.557,44.557" style="fill:#231815"/><path d="M170.061,91.22681c6.485-1.252,10.177,3.395,13.625-.106,3.449-3.501,3.75-16.918,11.034-20.085,7.284-3.166,17.327.548,17.583,3.903.255,3.356-5.3,3.174-6.374,8.921-1.073,5.746,7.321,32.457-8.448,42.458-15.768,10.002-36.523,4.969-38.488-2.227s4.583-31.611,11.068-32.864" style="fill:#231815"/><path d="M142.4834,91.22681c-6.485-1.252-10.177,3.395-13.625-.106-3.449-3.501-3.75-16.918-11.034-20.085-7.284-3.166-17.327.548-17.583,3.903-.255,3.356,5.3,3.174,6.374,8.921,1.073,5.746-7.321,32.457,8.448,42.458,15.768,10.002,36.523,4.969,38.488-2.227s-4.583-31.611-11.068-32.864" style="fill:#231815"/><path d="M215.7935,120.12181c11.65-11.679,36.257-6.169,41.866-1.87,5.61,4.298-7.479,16.066-19.038,19.702a33.10479,33.10479,0,0,1-21.59-.858Z" style="fill:#231815"/><path d="M216.22459,132.18481l-.209-9.01c9.399-6.167,31.581-4.247,33.46-1.66,2.013,2.771-7.536,8.167-15.984,10.84-5.677,1.796-13.276-.025-17.267-.17" style="fill:#b5b5b5"/><path d="M93.6831,120.12181c-11.65-11.679-36.257-6.169-41.866-1.87-5.61,4.298,7.479,16.066,19.038,19.702a33.10479,33.10479,0,0,0,21.59-.858Z" style="fill:#231815"/><path d="M93.252,132.18481l.209-9.01c-9.399-6.167-31.581-4.247-33.46-1.66-2.013,2.771,7.536,8.167,15.984,10.84,5.677,1.796,13.276-.025,17.267-.17" style="fill:#b5b5b5"/><rect width="470" height="336.48901" style="fill:none"/><g style="clip-path:url(#clip-path)"><path d="M231.62749,177.07031c4.732,11.887,4.761,22.532.099,31.637-5.722,11.16-17.769,18.069-31.975,22.265-14.215,4.189-30.588,5.656-44.982,5.932h-.059c-28.787-.542-65.503-5.877-76.957-28.197-4.672-9.096-4.632-19.741.099-31.637-.772-14.797-.109-26.517,2.089-36.849,2.97-13.988,8.909-25.263,17.67-33.515,12.77-12.04,31.994-18.139,57.129-18.139,25.134,0,44.348,6.099,57.128,18.139,8.751,8.252,14.7,19.519,17.67,33.515,2.198,10.332,2.861,22.043,2.089,36.849m-2.376,30.614c4.395-8.554,4.306-18.654-.267-30.011a1.13328,1.13328,0,0,1-.089-.479c1.108-20.808.346-50.587-18.997-68.798-12.245-11.542-30.796-17.393-55.158-17.393s-42.923,5.851-55.169,17.393c-19.333,18.211-20.095,47.99-18.996,68.807a1.0853,1.0853,0,0,1-.08.47c-4.573,11.357-4.662,21.457-.267,30.011,10.86,21.163,46.507,26.249,74.512,26.783,28.004-.534,63.652-5.62,74.511-26.783" style="fill:#231815"/><path d="M228.98441,177.67451c4.573,11.354,4.663,21.456.267,30.011-10.859,21.163-46.506,26.249-74.511,26.782-28.005-.533-63.652-5.619-74.512-26.782-4.395-8.555-4.306-18.657.268-30.011a1.11089,1.11089,0,0,0,.079-.472c-1.099-20.816-.337-50.595,18.997-68.806,12.245-11.542,30.806-17.393,55.168-17.393s42.913,5.851,55.158,17.393c19.343,18.211,20.106,47.99,18.997,68.798a1.15618,1.15618,0,0,0,.089.48" style="fill:#231815"/></g><path d="M114.375,119.51541s4.601-7.133,12.281-5.039c6.718,1.832,7.741,6.522,7.741,6.522" style="fill:none;stroke:#fff;stroke-linecap:round;stroke-linejoin:round;stroke-width:2.178999900817871px"/><path d="M122.0698,126.40262c7.055-.969,12.275,2.921,15.442,8.846,7.133,13.346,3.846,37.015-12.353,38.696-23.39,2.424-22.138-44.924-3.089-47.542" style="fill:#fff"/><path d="M122.0698,126.40262c7.055-.969,12.275,2.921,15.442,8.846,7.133,13.346,3.846,37.015-12.353,38.696C101.7688,176.36862,103.0208,129.02063,122.0698,126.40262Z" style="fill:none;stroke:#fff;stroke-miterlimit:10;stroke-width:0.9900000095367432px"/><path d="M119.0532,134.65651c13.319,2.188,11.434,34.083-.75,34.723-14.25.749-12.938-36.971.75-34.723" style="fill:#231815"/><path d="M175.0791,120.19751s4.601-7.133,12.281-5.039c6.718,1.832,7.741,6.522,7.741,6.522" style="fill:none;stroke:#fff;stroke-linecap:round;stroke-linejoin:round;stroke-width:2.178999900817871px"/><path d="M182.7739,126.40262c7.055-.969,12.275,2.921,15.442,8.846,7.133,13.346,3.846,37.015-12.353,38.696-23.39,2.424-22.138-44.924-3.089-47.542" style="fill:#fff"/><path d="M182.7739,126.40262c7.055-.969,12.275,2.921,15.442,8.846,7.133,13.346,3.846,37.015-12.353,38.696C162.47289,176.36862,163.72488,129.02063,182.7739,126.40262Z" style="fill:none;stroke:#fff;stroke-miterlimit:10;stroke-width:0.9900000095367432px"/><path d="M179.7578,134.65651c13.319,2.188,11.434,34.083-.75,34.723-14.25.749-12.938-36.971.75-34.723" style="fill:#231815"/><path d="M147.0459,199.01831s2.122,5.964,7.431,5.655a10.61244,10.61244,0,0,0,7.954-4.569" style="fill:none;stroke:#fff;stroke-linecap:round;stroke-linejoin:round;stroke-width:1.6480000019073486px"/><path d="M102.2427,195.24582c.706,9.542-3.584,17.636-9.582,18.079-5.997.443-11.431-6.932-12.137-16.474-.706-9.541,3.584-17.635,9.582-18.079,5.997-.443,11.431,6.932,12.137,16.474" style="fill:#b5b5b5"/><path d="M207.2339,195.24582c-.706,9.542,3.584,17.636,9.582,18.079,5.997.443,11.431-6.932,12.137-16.474.706-9.541-3.584-17.635-9.582-18.079-5.997-.443-11.431,6.932-12.137,16.474" style="fill:#b5b5b5"/><path d="M109.3843,223.074c-.169-.087-.339-.173-.502-.265a3.60284,3.60284,0,0,1,.502.265" style="fill:#f5a945"/><path d="M128.86571,319.571a73.35266,73.35266,0,0,0,1.99,9.53,4.84936,4.84936,0,0,0-.934,1.924,1.76806,1.76806,0,0,0-.007.619c.16.865,1.045.845,1.58.845h3.717c.751,0,1.965-.207,2.02-2.396.065-2.56-.05-7.092-.05-7.092l-8.528-5.343c.047.582.119,1.227.212,1.913" style="fill:#231815"/><path d="M180.6113,319.17261a73.34066,73.34066,0,0,1-1.99,9.529,4.84936,4.84936,0,0,1,.934,1.924,1.76834,1.76834,0,0,1,.007.619c-.16.866-1.045.846-1.58.846h-3.717c-.751,0-1.965-.207-2.02-2.397-.065-2.559.05-7.092.05-7.092l8.528-5.342c-.047.582-.119,1.226-.212,1.913" style="fill:#231815"/><path d="M162.65581,265.81031l-15.662-8.416a1.33974,1.33974,0,0,0-1.974,1.221l.543,17.772a1.34,1.34,0,0,0,2.044,1.099l15.12-9.357a1.33918,1.33918,0,0,0-.071-2.319" style="fill:#231815"/><path d="M187.3804,308.24881c0,3.635,9.928,6.576,22.197,6.576" style="fill:none;stroke:#231815;stroke-miterlimit:10;stroke-width:2.4660000801086426px"/><path d="M216.15331,314.82491a4.11051,4.11051,0,1,1-4.111-4.11,4.1103,4.1103,0,0,1,4.111,4.11" style="fill:#231815"/><path d="M219.4888,227.20191a6.14071,6.14071,0,0,0-6.358-5.893H95.2528a6.1418,6.1418,0,0,0-6.362,5.893v12.277h130.598Z" style="fill:#fff"/><path d="M220.58269,241.47522H89.23969a2.08687,2.08687,0,0,1-2.167-1.996v-12.277c0-4.35,3.843-7.889,8.565-7.889h118.551c4.72,0,8.561,3.539,8.561,7.889v12.277a2.08623,2.08623,0,0,1-2.167,1.996m-129.176-3.993h127.009v-10.28a4.0763,4.0763,0,0,0-4.227-3.896H95.6377a4.07867,4.07867,0,0,0-4.231,3.896Z" style="fill:#040000"/><path d="M95.4419,306.22921h117.878a6.1375,6.1375,0,0,0,6.358-5.893v-60.893H89.0829v60.893a6.13841,6.13841,0,0,0,6.359,5.893" style="fill:#fff"/><path d="M214.1882,308.26041H95.6372c-4.722,0-8.563-3.539-8.563-7.889v-60.893a2.08624,2.08624,0,0,1,2.167-1.996h131.341a2.08624,2.08624,0,0,1,2.167,1.996v60.893c0,4.35-3.841,7.889-8.561,7.889m-122.78-66.786v58.897a4.077,4.077,0,0,0,4.229,3.897h118.551a4.07644,4.07644,0,0,0,4.227-3.897v-58.897Z" style="fill:#050101"/><path d="M144.7148,254.56812l-.002-.002Z" style="fill:#b186b7"/><path d="M144.3882,279.63841a4.74751,4.74751,0,1,1-4.748-4.748,4.74768,4.74768,0,0,1,4.748,4.748" style="fill:#fff"/><path d="M157.9536,284.739a4.748,4.748,0,1,1-4.748-4.748,4.74683,4.74683,0,0,1,4.748,4.748" style="fill:#fff"/><path d="M153.2056,289.90392a5.16551,5.16551,0,1,1,5.166-5.165,5.171,5.171,0,0,1-5.166,5.165m0-9.496a4.33,4.33,0,1,0,4.33,4.331,4.33607,4.33607,0,0,0-4.33-4.331" style="fill:#fff"/><path d="M167.44971,274.07491a4.74851,4.74851,0,1,1-4.748-4.748,4.74832,4.74832,0,0,1,4.748,4.748" style="fill:#fff"/><path d="M164.4883,260.70771a4.748,4.748,0,1,1-4.748-4.748,4.74768,4.74768,0,0,1,4.748,4.748" style="fill:#fff"/><path d="M100.1665,230.489a2.1665,2.1665,0,1,1-2.167-2.167,2.16739,2.16739,0,0,1,2.167,2.167" style="fill:#fff"/><path d="M100.1665,230.489a2.1665,2.1665,0,1,1-2.167-2.167A2.16739,2.16739,0,0,1,100.1665,230.489Z" style="fill:none;stroke:#231815;stroke-miterlimit:10"/><path d="M108.1665,230.489a2.1665,2.1665,0,1,1-2.167-2.167,2.16739,2.16739,0,0,1,2.167,2.167" style="fill:#fff"/><path d="M108.1665,230.489a2.1665,2.1665,0,1,1-2.167-2.167A2.16739,2.16739,0,0,1,108.1665,230.489Z" style="fill:none;stroke:#231815;stroke-miterlimit:10"/><path d="M116.1665,230.489a2.1665,2.1665,0,1,1-2.167-2.167,2.16739,2.16739,0,0,1,2.167,2.167" style="fill:#fff"/><path d="M116.1665,230.489a2.1665,2.1665,0,1,1-2.167-2.167A2.16739,2.16739,0,0,1,116.1665,230.489Z" style="fill:none;stroke:#231815;stroke-miterlimit:10"/><path d="M124.0244,293.58671H99.0284a3.252,3.252,0,0,1-3.252-3.252v-34.996a3.252,3.252,0,0,1,3.252-3.252h24.996a3.252,3.252,0,0,1,3.252,3.252v34.996a3.252,3.252,0,0,1-3.252,3.252" style="fill:#231815"/><path d="M117.998,271.529a1.88076,1.88076,0,0,1,.534,1.308,1.84455,1.84455,0,0,1-1.842,1.84h-3.309v3.336a1.93064,1.93064,0,0,1-.533,1.308,1.88251,1.88251,0,0,1-1.308.534,1.84474,1.84474,0,0,1-1.841-1.842v-3.336h-3.336a1.926,1.926,0,0,1-1.308-.533,1.88012,1.88012,0,0,1-.534-1.307,1.84561,1.84561,0,0,1,1.842-1.842h3.336v-3.336a1.9326,1.9326,0,0,1,.533-1.308,1.88176,1.88176,0,0,1,1.308-.533,1.84454,1.84454,0,0,1,1.841,1.841v3.336h3.336a1.81565,1.81565,0,0,1,1.281.534" style="fill:#fff"/><path d="M167.1348,293.58671h-24.996a3.252,3.252,0,0,1-3.252-3.252v-34.996a3.252,3.252,0,0,1,3.252-3.252h24.996a3.252,3.252,0,0,1,3.252,3.252v34.996a3.252,3.252,0,0,1-3.252,3.252" style="fill:#231815"/><path d="M160.4297,270.75462a.73058.73058,0,0,1,.614,1.121l-6.405,6.805-6.404-6.805a.72239.72239,0,0,1,.613-1.121h1.575v-2.988a.77481.77481,0,0,1,.774-.775h6.911a.77481.77481,0,0,1,.774.775v2.988Z" style="fill:#fff"/><path d="M209.7319,293.58671h-24.996a3.252,3.252,0,0,1-3.252-3.252v-34.996a3.252,3.252,0,0,1,3.252-3.252h24.996a3.252,3.252,0,0,1,3.252,3.252v34.996a3.252,3.252,0,0,1-3.252,3.252" style="fill:#231815"/><path d="M195.2861,274.37082c2.028,1.734,5.711,3.416,7.606.641.16-.214.267-.134.186.106-1.574,4.724-7.018,5.071-10.647,2.028l-1.308,1.174a.55892.55892,0,0,1-.347.134.40148.40148,0,0,1-.294-.106.50926.50926,0,0,1-.213-.401v-5.07a.98.98,0,0,1,.053-.268.42246.42246,0,0,1,.16-.213.67149.67149,0,0,1,.481-.213h5.07a.51834.51834,0,0,1,.214.053.35744.35744,0,0,1,.186.16.522.522,0,0,1-.026.641Z" style="fill:#fff"/><path d="M191.3896,270.55441c1.575-4.724,7.019-5.07,10.648-2.028l1.308-1.174a.56251.56251,0,0,1,.347-.134.40005.40005,0,0,1,.293.107.50752.50752,0,0,1,.214.401v5.07a.93983.93983,0,0,1-.054.267.41.41,0,0,1-.16.214.67151.67151,0,0,1-.48.213h-5.071a.50971.50971,0,0,1-.213-.053.51927.51927,0,0,1-.16-.801l1.147-1.281c-2.028-1.735-5.711-3.416-7.605-.641-.187.188-.32.108-.214-.16" style="fill:#fff"/><path d="M91.3008,269.87181l.336-13.854-4.437-12.234s-21.521,32.754,4.101,26.088" style="fill:#231815"/><path d="M84.4204,268.97731c2.507,3.652,5.605,1.63,5.605,1.63a4.23962,4.23962,0,0,0,1.449-.014l.002-.001a4.107,4.107,0,0,0,2.249-1.15c2.318.123,5.472.68,7.538-1.135,1.841-1.616.649-4.346.649-4.346,2.368-.727,3.457-2.274,3.118-3.916-.933-3.608-6.385-5.411-9.103-5.37a15.21943,15.21943,0,0,0-4.132.767,16.73468,16.73468,0,0,0-7.663,5.425s-2.216,4.459.288,8.11" style="fill:#231815"/><path d="M91.4741,270.59351l.002-.001a4.10693,4.10693,0,0,0,2.249-1.15c2.318.123,5.473.679,7.538-1.135,1.841-1.616.649-4.346.649-4.346,2.369-.727,3.458-2.274,3.119-3.916-.934-3.608-6.386-5.411-9.104-5.37a15.17461,15.17461,0,0,0-4.131.767c-5.553,4.481-5.526,15.008-.322,15.151" style="fill:#fbfbfb"/><path d="M84.5474,261.17941a18.75046,18.75046,0,0,1,9.216-4.874,9.31,9.31,0,0,1,3.32-.078c2.429.468,5.633,1.769,6.502,4.241.455,1.469-1.042,2.528-2.309,2.953l-.461,1.002c.48,1.695.206,3.114-1.55,3.81-1.784.73-3.967.371-5.899.439a4.65744,4.65744,0,0,1-3.202,1.79,3.39817,3.39817,0,0,0,2.029.3,3.893,3.893,0,0,0,1.982-.924l-.522.2q.717.10051,1.472.184a9.87233,9.87233,0,0,0,4.806-.355c2.637-1.016,3.395-3.568,2.239-6.036l-.461,1.002c2.171-.516,4.238-2.402,3.532-4.848-1.047-3.288-4.774-4.895-7.889-5.419a8.68032,8.68032,0,0,0-2.951.044,13.78681,13.78681,0,0,0-9.854,6.569" style="fill:#231815"/><path d="M95.8667,260.35522a16.12454,16.12454,0,0,1,5.076,4.266l1.1-.987a16.81531,16.81531,0,0,0-6.176-3.279" style="fill:#231815"/><path d="M226.625,260.989l-3.958-12.667-.417-13s22.833,22,4.375,25.667" style="fill:#231815"/><path d="M229.6069,257.52512c-.915,4.334-4.552,3.654-4.552,3.654a4.23567,4.23567,0,0,1-1.343.543h-.002a4.10954,4.10954,0,0,1-2.518-.2c-2.094,1.002-4.794,2.726-7.398,1.842-2.32-.787-2.266-3.765-2.266-3.765-2.465.237-4.065-.775-4.38-2.421-.522-3.691,3.822-7.446,6.348-8.45a15.248,15.248,0,0,1,4.11-.876,16.73264,16.73264,0,0,1,9.157,2.072s3.757,3.268,2.844,7.601" style="fill:#231815"/><path d="M223.7119,261.72241h-.002a4.12439,4.12439,0,0,1-2.518-.2c-2.094,1.002-4.794,2.725-7.397,1.842-2.321-.788-2.267-3.765-2.267-3.765-2.465.236-4.065-.775-4.38-2.421-.522-3.691,3.822-7.446,6.348-8.45a15.1718,15.1718,0,0,1,4.11-.876c6.847,2.01,10.857,11.743,6.106,13.87" style="fill:#fbfbfb"/><path d="M226.5,250.37181a18.77065,18.77065,0,0,0-10.38-.969,9.3864,9.3864,0,0,0-3.097,1.201c-2.064,1.364-4.524,3.794-4.378,6.411.143,1.53,1.931,1.935,3.264,1.841l.81.749c.207,1.75,1.004,2.955,2.892,2.924,1.928-.009,3.806-1.178,5.618-1.855a5.18476,5.18476,0,0,0,.969.419,5.25562,5.25562,0,0,0,2.674.006,3.41394,3.41394,0,0,1-1.76,1.055,3.88009,3.88009,0,0,1-2.184-.094l.559-.015c-.416.245-.847.49-1.289.734a9.8691,9.8691,0,0,1-4.575,1.515c-2.826.073-4.504-1.992-4.382-4.715l.81.748c-2.204.356-4.836-.594-5.122-3.124-.294-3.437,2.533-6.352,5.209-8.029a8.67641,8.67641,0,0,1,2.742-1.091,13.792,13.792,0,0,1,11.62,2.289" style="fill:#231815"/><path d="M215.72951,253.94991a16.1422,16.1422,0,0,0-3.052,5.887l-1.395-.49a16.82475,16.82475,0,0,1,4.447-5.397" style="fill:#231815"/><path d="M444.1387,72.614a46,46,0,1,1-46-46,46.00011,46.00011,0,0,1,46,46" style="fill:#ea5555"/><circle cx="398.1387" cy="72.61401" r="46" style="fill:none;stroke:#060001;stroke-miterlimit:10;stroke-width:2px"/><path d="M384.80569,59.489a3.83351,3.83351,0,1,1-3.833-3.833,3.83288,3.83288,0,0,1,3.833,3.833" style="fill:#040000"/><path d="M419.1387,59.489a3.83351,3.83351,0,1,1-3.833-3.833,3.83289,3.83289,0,0,1,3.833,3.833" style="fill:#040000"/><path d="M367.4722,75.489c0,15.477,13.716,28,30.667,28" style="fill:none;stroke:#040000;stroke-linecap:round;stroke-miterlimit:10;stroke-width:2.239000082015991px"/><path d="M428.80569,75.489c0,15.477-13.716,28-30.667,28" style="fill:none;stroke:#040000;stroke-linecap:round;stroke-miterlimit:10;stroke-width:2.239000082015991px"/><rect width="470" height="336.48901" style="fill:none"/><rect width="470" height="336.48901" style="fill:none"/></svg>