<svg id="圖層_1" data-name="圖層 1" xmlns="http://www.w3.org/2000/svg" xmlns:xlink="http://www.w3.org/1999/xlink" viewBox="0 0 470 336.48901"><defs><clipPath id="clip-path"><rect x="74.277" y="88.56702" width="160.92301" height="148.337" style="fill:none"/></clipPath></defs><path d="M211.99989,231.489s13.5,6.083,14.25,8l-14.583-.583Z" style="fill:#231815"/><path d="M226.62489,260.989l-3.958-12.667-.417-13s22.833,22,4.375,25.667" style="fill:#231815"/><polygon points="0 332.489 262 332.489 131 223.256 0 332.489" style="fill:#4a60ab"/><rect width="470" height="336.48901" style="fill:none"/><polygon points="131 223.256 0 332.489 262 332.489 131 223.256" style="fill:none;stroke:#231815;stroke-width:2px"/><polygon points="342 127.489 217 332.489 467 332.489 342 127.489" style="fill:none;stroke:#040000;stroke-width:2px"/><rect width="470" height="336.48901" style="fill:none"/><polygon points="43.43 59.673 79.934 95.427 106.712 51.909 107.242 103.003 156.949 91.167 121.196 127.672 164.713 154.449 113.619 154.979 125.455 204.686 88.951 168.933 62.172 212.451 61.643 161.357 11.936 173.192 47.69 136.688 4.172 109.91 55.266 109.38 43.43 59.673" style="fill:none;stroke:#231815;stroke-width:2px"/><path d="M155.8085,326.33471h-2.14a44.68865,44.68865,0,0,1-44.558-44.557v-29.271a44.68865,44.68865,0,0,1,44.558-44.557h2.14a44.6878,44.6878,0,0,1,44.557,44.557v29.271a44.6878,44.6878,0,0,1-44.557,44.557" style="fill:#231815"/><path d="M170.0609,91.22681c6.485-1.252,10.177,3.395,13.625-.106,3.449-3.501,3.75-16.918,11.034-20.085,7.284-3.166,17.327.548,17.583,3.903.255,3.356-5.3,3.174-6.374,8.921-1.073,5.746,7.321,32.457-8.448,42.458-15.768,10.002-36.523,4.969-38.488-2.227s4.583-31.611,11.068-32.864" style="fill:#231815"/><path d="M142.48331,91.22681c-6.485-1.252-10.177,3.395-13.625-.106-3.449-3.501-3.75-16.918-11.034-20.085-7.284-3.166-17.327.548-17.583,3.903-.255,3.356,5.3,3.174,6.374,8.921,1.073,5.746-7.321,32.457,8.448,42.458,15.768,10.002,36.523,4.969,38.488-2.227s-4.583-31.611-11.068-32.864" style="fill:#231815"/><path d="M215.7933,120.12181c11.65-11.679,36.257-6.169,41.866-1.87,5.61,4.298-7.479,16.066-19.038,19.702a33.10475,33.10475,0,0,1-21.59-.858Z" style="fill:#231815"/><path d="M216.2245,132.18481l-.209-9.01c9.399-6.167,31.581-4.247,33.46-1.66,2.014,2.771-7.536,8.167-15.983,10.84-5.678,1.796-13.277-.025-17.268-.17" style="fill:#b5b5b5"/><path d="M93.683,120.12181c-11.65-11.679-36.257-6.169-41.866-1.87-5.61,4.298,7.479,16.066,19.038,19.702a33.10476,33.10476,0,0,0,21.59-.858Z" style="fill:#231815"/><path d="M93.2518,132.18481l.209-9.01c-9.399-6.167-31.581-4.247-33.46-1.66-2.013,2.771,7.536,8.167,15.984,10.84,5.677,1.796,13.276-.025,17.267-.17" style="fill:#b5b5b5"/><rect width="470" height="336.48901" style="fill:none"/><g style="clip-path:url(#clip-path)"><path d="M231.62729,177.07031c4.732,11.887,4.761,22.532.099,31.637-5.722,11.16-17.769,18.069-31.975,22.265-14.215,4.189-30.588,5.656-44.982,5.932h-.059c-28.787-.542-65.503-5.877-76.957-28.197-4.672-9.096-4.632-19.741.099-31.637-.772-14.797-.109-26.517,2.089-36.849,2.97-13.988,8.909-25.263,17.67-33.515,12.77-12.04,31.994-18.139,57.129-18.139,25.134,0,44.348,6.099,57.128,18.139,8.751,8.252,14.7,19.519,17.67,33.515,2.198,10.332,2.861,22.043,2.089,36.849m-2.376,30.614c4.395-8.554,4.306-18.654-.267-30.011a1.13328,1.13328,0,0,1-.089-.479c1.108-20.808.346-50.587-18.997-68.798-12.245-11.542-30.796-17.393-55.158-17.393s-42.923,5.851-55.169,17.393c-19.333,18.211-20.095,47.99-18.996,68.807a1.08515,1.08515,0,0,1-.08.47c-4.573,11.357-4.662,21.457-.267,30.011,10.86,21.163,46.507,26.249,74.512,26.783,28.004-.534,63.652-5.62,74.511-26.783" style="fill:#231815"/><path d="M228.9843,177.67451c4.573,11.354,4.663,21.456.267,30.011-10.859,21.163-46.506,26.249-74.511,26.782-28.005-.533-63.652-5.619-74.512-26.782-4.395-8.555-4.306-18.657.268-30.011a1.11058,1.11058,0,0,0,.079-.472c-1.099-20.816-.337-50.595,18.997-68.806,12.245-11.542,30.806-17.393,55.168-17.393s42.913,5.851,55.158,17.393c19.343,18.211,20.106,47.99,18.997,68.798a1.15618,1.15618,0,0,0,.089.48" style="fill:#231815"/></g><path d="M114.3749,119.51541s4.601-7.133,12.281-5.039c6.718,1.832,7.741,6.522,7.741,6.522" style="fill:none;stroke:#fff;stroke-linecap:round;stroke-linejoin:round;stroke-width:2.178999900817871px"/><path d="M122.0697,126.40262c7.055-.969,12.275,2.921,15.442,8.846,7.133,13.346,3.846,37.015-12.353,38.696-23.39,2.424-22.138-44.924-3.089-47.542" style="fill:#fff"/><path d="M122.0697,126.40262c7.055-.969,12.275,2.921,15.442,8.846,7.133,13.346,3.846,37.015-12.353,38.696C101.7687,176.36862,103.0207,129.02063,122.0697,126.40262Z" style="fill:none;stroke:#fff;stroke-miterlimit:10;stroke-width:0.9900000095367432px"/><path d="M119.0536,134.65651c13.319,2.188,11.434,34.083-.75,34.723-14.25.749-12.938-36.971.75-34.723" style="fill:#231815"/><path d="M175.079,120.19751s4.601-7.133,12.281-5.039c6.718,1.832,7.741,6.522,7.741,6.522" style="fill:none;stroke:#fff;stroke-linecap:round;stroke-linejoin:round;stroke-width:2.178999900817871px"/><path d="M182.77431,126.40262c7.055-.969,12.275,2.921,15.442,8.846,7.133,13.346,3.846,37.015-12.353,38.696-23.39,2.424-22.138-44.924-3.089-47.542" style="fill:#fff"/><path d="M182.77431,126.40262c7.055-.969,12.275,2.921,15.442,8.846,7.133,13.346,3.846,37.015-12.353,38.696C162.4733,176.36862,163.7253,129.02063,182.77431,126.40262Z" style="fill:none;stroke:#fff;stroke-miterlimit:10;stroke-width:0.9900000095367432px"/><path d="M179.75771,134.65651c13.319,2.188,11.434,34.083-.75,34.723-14.25.749-12.938-36.971.75-34.723" style="fill:#231815"/><path d="M147.04581,199.01831s2.122,5.964,7.431,5.655a10.61244,10.61244,0,0,0,7.954-4.569" style="fill:none;stroke:#fff;stroke-linecap:round;stroke-linejoin:round;stroke-width:1.6480000019073486px"/><path d="M102.2426,195.24582c.706,9.542-3.584,17.636-9.582,18.079-5.997.443-11.431-6.932-12.137-16.474-.706-9.541,3.584-17.635,9.582-18.079,5.997-.443,11.431,6.932,12.137,16.474" style="fill:#b5b5b5"/><path d="M207.2338,195.24582c-.706,9.542,3.584,17.636,9.582,18.079,5.997.443,11.431-6.932,12.137-16.474.706-9.541-3.584-17.635-9.582-18.079-5.997-.443-11.431,6.932-12.137,16.474" style="fill:#b5b5b5"/><path d="M109.3842,223.074c-.169-.087-.339-.173-.502-.265a3.60226,3.60226,0,0,1,.502.265" style="fill:#f5a945"/><polygon points="342 127.489 217 332.489 467 332.489 342 127.489" style="fill:#d9e364;stroke:#231815;stroke-miterlimit:10;stroke-width:2px"/><path d="M128.8656,319.571a73.35266,73.35266,0,0,0,1.99,9.53,4.8495,4.8495,0,0,0-.934,1.924,1.76829,1.76829,0,0,0-.007.619c.16.865,1.045.845,1.58.845h3.717c.751,0,1.965-.207,2.02-2.396.065-2.56-.05-7.092-.05-7.092l-8.528-5.343c.047.582.119,1.227.212,1.913" style="fill:#231815"/><path d="M180.61121,319.17261a73.34066,73.34066,0,0,1-1.99,9.529,4.84936,4.84936,0,0,1,.934,1.924,1.76833,1.76833,0,0,1,.007.619c-.16.866-1.045.846-1.58.846h-3.717c-.751,0-1.965-.207-2.02-2.397-.065-2.559.05-7.092.05-7.092l8.528-5.342c-.047.582-.119,1.226-.212,1.913" style="fill:#231815"/><path d="M162.6561,265.81031l-15.662-8.416a1.33974,1.33974,0,0,0-1.974,1.221l.543,17.772a1.34,1.34,0,0,0,2.044,1.099l15.12-9.357a1.33918,1.33918,0,0,0-.071-2.319" style="fill:#231815"/><path d="M444.99991,72.489a46,46,0,1,1-46-46,46.00011,46.00011,0,0,1,46,46" style="fill:#ea5555"/><circle cx="398.99991" cy="72.48901" r="46" style="fill:none;stroke:#231815;stroke-width:2px"/><path d="M187.38071,308.24881c0,3.635,9.928,6.576,22.197,6.576" style="fill:none;stroke:#231815;stroke-miterlimit:10;stroke-width:2.4660000801086426px"/><path d="M216.1532,314.82491a4.11051,4.11051,0,1,1-4.111-4.11,4.1103,4.1103,0,0,1,4.111,4.11" style="fill:#231815"/><path d="M210.0648,227.20191a5.89336,5.89336,0,0,0-5.891-5.893H94.96281a5.89464,5.89464,0,0,0-5.894,5.893v12.277h120.996Z" style="fill:#fff"/><path d="M210.06529,241.47522H89.0693a1.99518,1.99518,0,0,1-1.996-1.996v-12.277a7.89816,7.89816,0,0,1,7.89-7.889h109.21a7.89709,7.89709,0,0,1,7.888,7.889v12.277a1.99581,1.99581,0,0,1-1.996,1.996m-119-3.993h117.003v-10.28a3.8999,3.8999,0,0,0-3.895-3.896h-109.21a3.90181,3.90181,0,0,0-3.898,3.896Z" style="fill:#040000"/><path d="M94.9618,306.26441h109.211a5.89164,5.89164,0,0,0,5.892-5.893v-60.893H89.06979v60.893a5.89229,5.89229,0,0,0,5.892,5.893" style="fill:#fff"/><path d="M204.17329,308.26041H94.9623a7.89709,7.89709,0,0,1-7.888-7.889v-60.893a1.99518,1.99518,0,0,1,1.996-1.996h120.994a1.99583,1.99583,0,0,1,1.996,1.996v60.893a7.89689,7.89689,0,0,1-7.887,7.889m-113.107-66.786v58.897a3.901,3.901,0,0,0,3.896,3.897h109.211a3.89989,3.89989,0,0,0,3.894-3.897v-58.897Z" style="fill:#050101"/><path d="M104.9764,229.28881a1.10535,1.10535,0,0,1-1.105,1.105h-8.594a1.1045,1.1045,0,1,1,0-2.209h8.594a1.10515,1.10515,0,0,1,1.105,1.104" style="fill:#040000"/><path d="M205.809,229.28881a1.10494,1.10494,0,0,1-1.103,1.105h-8.595a1.1045,1.1045,0,0,1,0-2.209h8.595a1.10473,1.10473,0,0,1,1.103,1.104" style="fill:#040000"/><path d="M194.6859,280.25761c-1.115,2.757.67,6.079,3.991,7.423,3.318,1.343,6.914.195,8.03-2.56l25.695-63.525-12.02-4.863Z" style="fill:#231815"/><path d="M201.50648,289.24h0a8.50727,8.50727,0,0,1-3.204-.635c-3.824-1.547-5.861-5.46-4.542-8.721l25.696-63.526a.99732.99732,0,0,1,1.299-.551l12.021,4.863a.99933.99933,0,0,1,.551,1.3l-25.696,63.525a6.41985,6.41985,0,0,1-6.125,3.745m19.426-71.208-25.321,62.6c-.907,2.242.636,4.989,3.44,6.124a6.52451,6.52451,0,0,0,2.455.488,4.38882,4.38882,0,0,0,4.275-2.498l25.321-62.599Z" style="fill:#050101"/><path d="M229.14439,212.35722c-3.32-1.343-6.917-.196-8.03,2.56l-.734,1.815,12.022,4.862.732-1.814c1.114-2.757-.671-6.08-3.99-7.423" style="fill:#fff"/><path d="M232.4021,222.59241a1.00711,1.00711,0,0,1-.374-.072l-12.022-4.862a.99888.99888,0,0,1-.551-1.3l.734-1.816a6.41578,6.41578,0,0,1,6.123-3.746,8.52123,8.52123,0,0,1,3.206.635c3.824,1.547,5.861,5.46,4.542,8.723l-.733,1.814a.99562.99562,0,0,1-.925.624m-10.722-6.412,10.17,4.114.359-.888c.907-2.243-.636-4.991-3.439-6.123a6.507,6.507,0,0,0-2.458-.49,4.38484,4.38484,0,0,0-4.272,2.497Z" style="fill:#040000"/><path d="M206.15469,286.22141l-12.021-4.862-.798,13.969c1.044.484,2.284,1.038,3.582,1.601Z" style="fill:#fff"/><path d="M197.1945,298.13782l-.674-.293c-1.306-.567-2.554-1.123-3.605-1.611l-.615-.285.917-16.037,14.603,5.907Zm-2.823-3.432c.701.32,1.47.663,2.271,1.015l7.847-9.096-9.438-3.818Z" style="fill:#040000"/><path d="M229.6068,257.52512c-.915,4.334-4.551,3.654-4.551,3.654a4.24859,4.24859,0,0,1-1.344.543h-.002a4.10951,4.10951,0,0,1-2.518-.2c-2.093,1.002-4.794,2.726-7.397,1.842-2.321-.787-2.266-3.765-2.266-3.765-2.466.237-4.066-.775-4.381-2.421-.522-3.691,3.822-7.446,6.348-8.45a15.24819,15.24819,0,0,1,4.11-.876,16.73082,16.73082,0,0,1,9.157,2.072s3.757,3.268,2.844,7.601" style="fill:#231815"/><path d="M223.71181,261.72241h-.002a4.12439,4.12439,0,0,1-2.518-.2c-2.093,1.002-4.794,2.725-7.397,1.842-2.321-.788-2.266-3.765-2.266-3.765-2.466.236-4.066-.775-4.381-2.421-.522-3.691,3.822-7.446,6.348-8.45a15.172,15.172,0,0,1,4.11-.876c6.847,2.01,10.857,11.743,6.106,13.87" style="fill:#fbfbfb"/><path d="M226.49989,250.37181a18.77065,18.77065,0,0,0-10.38-.969,9.38626,9.38626,0,0,0-3.097,1.201c-2.064,1.364-4.524,3.794-4.378,6.411.143,1.53,1.931,1.935,3.265,1.841l.809.749c.207,1.75,1.004,2.955,2.892,2.924,1.928-.009,3.806-1.178,5.618-1.855a4.64477,4.64477,0,0,0,3.643.425,3.414,3.414,0,0,1-1.76,1.055,3.88005,3.88005,0,0,1-2.184-.094l.559-.015q-.624.3675-1.289.734a9.86907,9.86907,0,0,1-4.575,1.515c-2.825.073-4.504-1.992-4.382-4.715l.81.748c-2.203.356-4.836-.594-5.122-3.124-.293-3.437,2.533-6.352,5.209-8.029a8.67641,8.67641,0,0,1,2.742-1.091,13.792,13.792,0,0,1,11.62,2.289" style="fill:#231815"/><path d="M215.7294,253.94991a16.1422,16.1422,0,0,0-3.052,5.887l-1.395-.49a16.83786,16.83786,0,0,1,4.447-5.397" style="fill:#231815"/><path d="M91.3007,269.87181l.337-13.854-4.438-12.234s-21.521,32.754,4.101,26.088" style="fill:#231815"/><path d="M84.4203,268.97731c2.507,3.652,5.605,1.63,5.605,1.63a4.23962,4.23962,0,0,0,1.449-.014l.002-.001a4.107,4.107,0,0,0,2.249-1.15c2.318.123,5.472.68,7.538-1.135,1.841-1.616.649-4.346.649-4.346,2.368-.727,3.457-2.274,3.118-3.916-.933-3.608-6.385-5.411-9.103-5.37a15.2265,15.2265,0,0,0-4.132.767,16.73468,16.73468,0,0,0-7.663,5.425s-2.216,4.459.288,8.11" style="fill:#231815"/><path d="M91.474,270.59351l.002-.001a4.10693,4.10693,0,0,0,2.249-1.15c2.318.123,5.473.679,7.538-1.135,1.841-1.616.649-4.346.649-4.346,2.369-.727,3.458-2.274,3.119-3.916-.934-3.608-6.386-5.411-9.104-5.37a15.17461,15.17461,0,0,0-4.131.767c-5.553,4.481-5.526,15.008-.322,15.151" style="fill:#fbfbfb"/><path d="M84.5472,261.17941a18.75046,18.75046,0,0,1,9.216-4.874,9.31,9.31,0,0,1,3.32-.078c2.429.468,5.633,1.769,6.502,4.241.455,1.469-1.042,2.528-2.309,2.953l-.461,1.002c.48,1.695.206,3.114-1.55,3.81-1.784.73-3.967.371-5.899.439a4.6485,4.6485,0,0,1-3.202,1.79,3.39818,3.39818,0,0,0,2.029.3,3.893,3.893,0,0,0,1.982-.924l-.522.2c.478.067.97.128,1.472.184a9.87233,9.87233,0,0,0,4.806-.355c2.637-1.016,3.396-3.568,2.239-6.036l-.461,1.002c2.171-.516,4.238-2.402,3.533-4.848-1.048-3.288-4.775-4.895-7.89-5.419a8.68032,8.68032,0,0,0-2.951.044,13.78683,13.78683,0,0,0-9.854,6.569" style="fill:#231815"/><path d="M95.8671,260.35522a16.12432,16.12432,0,0,1,5.076,4.266l1.1-.987a16.82323,16.82323,0,0,0-6.176-3.279" style="fill:#231815"/><path d="M144.71471,254.56812l-.001-.002Z" style="fill:#b186b7"/><path d="M166.58389,256.21561a22.34569,22.34569,0,0,0-15.857-6.558c-.264,0-.527.005-.791.015a22.62578,22.62578,0,0,0-3.696.426l-.073.019a3.03016,3.03016,0,0,0-1.553,1.046,2.39548,2.39548,0,0,0-.449,1.441,4.36975,4.36975,0,0,0,.548,1.962c.058.11.11.201.15.267l.049.079a8.45052,8.45052,0,0,1-11.713,11.219.62854.62854,0,0,0-.17-.065,3.6243,3.6243,0,0,0-1.528-.375,2.694,2.694,0,0,0-1.228.29,3.23674,3.23674,0,0,0-1.135.995,3.99065,3.99065,0,0,0-.449.79l-.037.122a22.65616,22.65616,0,0,0-.399,4.235,22.42128,22.42128,0,0,0,21.685,22.421c.256.009.51.013.764.013a22.45913,22.45913,0,0,0,15.882-38.342" style="fill:#231815"/><path d="M150.70518,295.39371h-.003c-.263,0-.527-.005-.79-.013a23.26033,23.26033,0,0,1-22.495-23.258,23.49913,23.49913,0,0,1,.414-4.39l.088-.292a4.79935,4.79935,0,0,1,.543-.956,4.05948,4.05948,0,0,1,1.432-1.248,3.8869,3.8869,0,0,1,3.421.041,1.58419,1.58419,0,0,1,.298.128,7.64388,7.64388,0,0,0,3.81,1.016,7.60345,7.60345,0,0,0,7.603-7.608,7.651,7.651,0,0,0-.841-3.487l-.031-.05c-.054-.091-.115-.196-.181-.323a5.09549,5.09549,0,0,1-.644-2.345,3.2226,3.2226,0,0,1,.61-1.938,3.83841,3.83841,0,0,1,1.967-1.347l.168-.044a23.541,23.541,0,0,1,3.833-.442c.272-.01.546-.016.82-.016a23.286,23.286,0,0,1-.022,46.572m-21.24-27.307a21.85716,21.85716,0,0,0-.376,4.037,21.58577,21.58577,0,0,0,20.877,21.586c.245.008.491.012.736.012h.003a21.614,21.614,0,1,0,.025-43.228c-.257,0-.511.005-.765.014a21.89971,21.89971,0,0,0-3.537.405l-.024.007a2.21782,2.21782,0,0,0-1.115.736,1.58535,1.58535,0,0,0-.289.945,3.52075,3.52075,0,0,0,.454,1.579c.048.092.093.169.126.225l.073.122a9.32529,9.32529,0,0,1,1.044,4.288,9.28479,9.28479,0,0,1-13.882,8.06l-.14-.051a2.241,2.241,0,0,0-2.023-.097,2.40888,2.40888,0,0,0-.84.743,3.16687,3.16687,0,0,0-.337.583Z" style="fill:#040000"/><path d="M144.38811,279.63841a4.74751,4.74751,0,1,1-4.748-4.748,4.74768,4.74768,0,0,1,4.748,4.748" style="fill:#fff"/><path d="M139.6405,284.80432a5.166,5.166,0,1,1,5.166-5.166,5.1719,5.1719,0,0,1-5.166,5.166m0-9.496a4.3305,4.3305,0,1,0,4.33,4.33,4.335,4.335,0,0,0-4.33-4.33" style="fill:#050101"/><path d="M157.95351,284.739a4.748,4.748,0,1,1-4.748-4.748,4.74683,4.74683,0,0,1,4.748,4.748" style="fill:#fff"/><path d="M153.2054,289.90392a5.16551,5.16551,0,1,1,5.166-5.165,5.171,5.171,0,0,1-5.166,5.165m0-9.496a4.33,4.33,0,1,0,4.33,4.331,4.33521,4.33521,0,0,0-4.33-4.331" style="fill:#fff"/><path d="M167.4496,274.07491a4.74851,4.74851,0,1,1-4.748-4.748,4.74832,4.74832,0,0,1,4.748,4.748" style="fill:#fff"/><path d="M162.70151,279.24091a5.166,5.166,0,1,1,5.166-5.166,5.17211,5.17211,0,0,1-5.166,5.166m0-9.497a4.3305,4.3305,0,1,0,4.33,4.331,4.33607,4.33607,0,0,0-4.33-4.331" style="fill:#040000"/><path d="M164.4886,260.70771a4.748,4.748,0,1,1-4.748-4.748,4.74832,4.74832,0,0,1,4.748,4.748" style="fill:#fff"/><path d="M159.7406,265.87272a5.1655,5.1655,0,1,1,5.166-5.165,5.17169,5.17169,0,0,1-5.166,5.165m0-9.495a4.33,4.33,0,1,0,4.33,4.33,4.33435,4.33435,0,0,0-4.33-4.33" style="fill:#050101"/><rect width="470" height="336.48901" style="fill:none"/><rect width="470" height="336.48901" style="fill:none"/></svg>